<svg xmlns="http://www.w3.org/2000/svg" width="151" height="55" viewBox="0 0 151 55" fill="none">
  <rect width="150.082" height="54.6197" rx="8.24447" fill="#F79F1A"/>
  <path d="M33.7148 28.1299L33.7147 28.1299L33.7147 28.1394C33.7176 30.8075 35.2278 33.2908 37.5528 34.5357C37.1161 35.7764 36.5114 36.9519 35.755 38.0287L35.7501 38.0357L35.7453 38.0428C35.1294 38.9677 34.5433 39.8105 33.8815 40.4308C33.2337 41.0381 32.5596 41.3881 31.7648 41.4011L31.7601 41.4012C30.9417 41.4201 30.4061 41.1912 29.7168 40.8966L29.6995 40.8892C28.983 40.583 28.1439 40.2326 26.8655 40.2326C25.5862 40.2326 24.7376 40.5565 24.0054 40.8635C23.9578 40.8834 23.9111 40.9031 23.865 40.9226C23.2132 41.1972 22.6946 41.4158 21.9438 41.4474C21.2397 41.473 20.5565 41.1222 19.8464 40.4531C19.1356 39.7834 18.4869 38.8799 17.8488 37.964C16.6376 36.1865 15.5493 33.6612 15.0872 31.0312C14.624 28.3945 14.8036 25.7373 16.0172 23.6279L16.0173 23.6279L16.0226 23.6184C17.1355 21.6106 19.272 20.3025 21.5569 20.227C22.3748 20.211 23.1951 20.4892 24.0333 20.8215C24.136 20.8622 24.2407 20.9044 24.346 20.9469C24.6506 21.0697 24.961 21.1949 25.2483 21.2939C25.6347 21.4271 26.0584 21.5425 26.4733 21.5425C26.8968 21.5425 27.3549 21.4013 27.7673 21.2519C27.9933 21.17 28.2613 21.0635 28.5319 20.9559C28.7391 20.8735 28.9479 20.7905 29.1405 20.7175C30.1152 20.3481 31.1164 20.0563 32.0939 20.1593L32.1191 20.162L32.1443 20.1628C33.8505 20.2163 35.5049 21.0104 36.6346 22.2897C34.8438 23.6731 33.7441 25.8446 33.7148 28.1299ZM30.1374 16.5948L30.1374 16.5947L30.1299 16.604C29.3405 17.5897 28.1661 18.2399 26.9225 18.4059C26.9958 17.1481 27.4901 15.9198 28.32 14.9716L28.3202 14.9714C29.1638 14.0068 30.2832 13.3383 31.5154 13.05C31.4514 14.3438 30.9715 15.5896 30.1374 16.5948Z" fill="white" stroke="white" stroke-width="1.3728"/>
  <path d="M102.053 25.7549V28.5513H100.307V30.3851H102.053V36.6162C102.053 38.7439 103.012 39.595 105.424 39.595C105.848 39.595 106.251 39.5443 106.604 39.4835V37.6699C106.302 37.7003 106.11 37.7206 105.777 37.7206C104.697 37.7206 104.223 37.214 104.223 36.059V30.3851H106.604V28.5513H104.223V25.7549H102.053Z" fill="white"/>
  <path d="M112.749 39.7469C115.959 39.7469 117.927 37.5889 117.927 34.0123C117.927 30.4561 115.948 28.2878 112.749 28.2878C109.54 28.2878 107.562 30.4561 107.562 34.0123C107.562 37.5889 109.53 39.7469 112.749 39.7469ZM112.749 37.8118C110.862 37.8118 109.802 36.4237 109.802 34.0123C109.802 31.6212 110.862 30.223 112.749 30.223C114.626 30.223 115.696 31.6212 115.696 34.0123C115.696 36.4136 114.626 37.8118 112.749 37.8118Z" fill="white"/>
  <path d="M119.61 39.5342H121.78V33.0194C121.78 31.4692 122.941 30.4257 124.586 30.4257C124.969 30.4257 125.615 30.4966 125.797 30.5574V28.4094C125.565 28.3486 125.151 28.3182 124.828 28.3182C123.395 28.3182 122.174 29.1085 121.861 30.1926H121.7V28.5006H119.61V39.5342Z" fill="white"/>
  <path d="M131.185 30.142C132.79 30.142 133.839 31.2666 133.89 32.9991H128.339C128.46 31.2767 129.58 30.142 131.185 30.142ZM133.879 36.5554C133.476 37.4166 132.578 37.8928 131.266 37.8928C129.53 37.8928 128.409 36.6669 128.339 34.7317V34.6101H136.1V33.8502C136.1 30.3851 134.253 28.2878 131.195 28.2878C128.097 28.2878 126.128 30.527 126.128 34.0529C126.128 37.5787 128.056 39.7469 131.205 39.7469C133.718 39.7469 135.474 38.5311 135.969 36.5554H133.879Z" fill="white"/>
  <path d="M87.823 35.4597C87.9904 38.169 90.2394 39.9017 93.5868 39.9017C97.1643 39.9017 99.4028 38.085 99.4028 35.1866C99.4028 32.9078 98.1267 31.6477 95.0303 30.9231L93.3671 30.5135C91.4005 30.0515 90.6055 29.4319 90.6055 28.3502C90.6055 26.9851 91.8399 26.0925 93.6914 26.0925C95.4488 26.0925 96.6622 26.9641 96.8819 28.3607H99.1623C99.0263 25.8089 96.7877 24.0132 93.7228 24.0132C90.4277 24.0132 88.231 25.8089 88.231 28.5078C88.231 30.734 89.4758 32.0572 92.206 32.6978L94.1517 33.1704C96.1496 33.6429 97.0283 34.336 97.0283 35.4912C97.0283 36.8353 95.6475 37.812 93.7646 37.812C91.7457 37.812 90.344 36.8983 90.1453 35.4597H87.823Z" fill="white"/>
  <path d="M65.3454 28.3182C63.8517 28.3182 62.5598 29.068 61.8937 30.3243H61.7323V28.5006H59.6431V43.2019H61.813V37.8624H61.9846C62.5598 39.0276 63.8012 39.7166 65.3655 39.7166C68.141 39.7166 69.9071 37.5179 69.9071 34.0123C69.9071 30.5067 68.141 28.3182 65.3454 28.3182ZM64.7297 37.7611C62.9131 37.7611 61.7726 36.3224 61.7726 34.0225C61.7726 31.7124 62.9131 30.2737 64.7398 30.2737C66.5766 30.2737 67.6767 31.682 67.6767 34.0123C67.6767 36.3528 66.5766 37.7611 64.7297 37.7611Z" fill="white"/>
  <path d="M77.4999 28.3182C76.0062 28.3182 74.7144 29.068 74.0483 30.3243H73.8868V28.5006H71.7977V43.2019H73.9675V37.8624H74.1391C74.7144 39.0276 75.9557 39.7166 77.5201 39.7166C80.2955 39.7166 82.0617 37.5179 82.0617 34.0123C82.0617 30.5067 80.2955 28.3182 77.4999 28.3182ZM76.8842 37.7611C75.0676 37.7611 73.9272 36.3224 73.9272 34.0225C73.9272 31.7124 75.0676 30.2737 76.8943 30.2737C78.7312 30.2737 79.8312 31.682 79.8312 34.0123C79.8312 36.3528 78.7312 37.7611 76.8842 37.7611Z" fill="white"/>
  <path d="M55.75 39.5342H58.2396L52.7897 24.3807H50.2687L44.8187 39.5342H47.2247L48.6159 35.5122H54.3692L55.75 39.5342ZM51.4089 27.1321H51.5867L53.7729 33.5379H49.2122L51.4089 27.1321Z" fill="white"/>
  <path d="M102.053 25.7549V28.5513H100.307V30.3851H102.053V36.6162C102.053 38.7439 103.012 39.595 105.424 39.595C105.848 39.595 106.251 39.5443 106.604 39.4835V37.6699C106.302 37.7003 106.11 37.7206 105.777 37.7206C104.697 37.7206 104.223 37.214 104.223 36.059V30.3851H106.604V28.5513H104.223V25.7549H102.053Z" stroke="#4A3AFF"/>
  <path d="M112.749 39.7469C115.959 39.7469 117.927 37.5889 117.927 34.0123C117.927 30.4561 115.948 28.2878 112.749 28.2878C109.54 28.2878 107.562 30.4561 107.562 34.0123C107.562 37.5889 109.53 39.7469 112.749 39.7469ZM112.749 37.8118C110.862 37.8118 109.802 36.4237 109.802 34.0123C109.802 31.6212 110.862 30.223 112.749 30.223C114.626 30.223 115.696 31.6212 115.696 34.0123C115.696 36.4136 114.626 37.8118 112.749 37.8118Z" stroke="#4A3AFF"/>
  <path d="M119.61 39.5342H121.78V33.0194C121.78 31.4692 122.941 30.4257 124.586 30.4257C124.969 30.4257 125.615 30.4966 125.797 30.5574V28.4094C125.565 28.3486 125.151 28.3182 124.828 28.3182C123.395 28.3182 122.174 29.1085 121.861 30.1926H121.7V28.5006H119.61V39.5342Z" stroke="#4A3AFF"/>
  <path d="M131.185 30.142C132.79 30.142 133.839 31.2666 133.89 32.9991H128.339C128.46 31.2767 129.58 30.142 131.185 30.142ZM133.879 36.5554C133.476 37.4166 132.578 37.8928 131.266 37.8928C129.53 37.8928 128.409 36.6669 128.339 34.7317V34.6101H136.1V33.8502C136.1 30.3851 134.253 28.2878 131.195 28.2878C128.097 28.2878 126.128 30.527 126.128 34.0529C126.128 37.5787 128.056 39.7469 131.205 39.7469C133.718 39.7469 135.474 38.5311 135.969 36.5554H133.879Z" stroke="#4A3AFF"/>
  <path d="M87.823 35.4597C87.9904 38.169 90.2394 39.9017 93.5868 39.9017C97.1643 39.9017 99.4028 38.085 99.4028 35.1866C99.4028 32.9078 98.1267 31.6477 95.0303 30.9231L93.3671 30.5135C91.4005 30.0515 90.6055 29.4319 90.6055 28.3502C90.6055 26.9851 91.8399 26.0925 93.6914 26.0925C95.4488 26.0925 96.6622 26.9641 96.8819 28.3607H99.1623C99.0263 25.8089 96.7877 24.0132 93.7228 24.0132C90.4277 24.0132 88.231 25.8089 88.231 28.5078C88.231 30.734 89.4758 32.0572 92.206 32.6978L94.1517 33.1704C96.1496 33.6429 97.0283 34.336 97.0283 35.4912C97.0283 36.8353 95.6475 37.812 93.7646 37.812C91.7457 37.812 90.344 36.8983 90.1453 35.4597H87.823Z" stroke="#4A3AFF"/>
  <path d="M65.3454 28.3182C63.8517 28.3182 62.5598 29.068 61.8937 30.3243H61.7323V28.5006H59.6431V43.2019H61.813V37.8624H61.9846C62.5598 39.0276 63.8012 39.7166 65.3655 39.7166C68.141 39.7166 69.9071 37.5179 69.9071 34.0123C69.9071 30.5067 68.141 28.3182 65.3454 28.3182ZM64.7297 37.7611C62.9131 37.7611 61.7726 36.3224 61.7726 34.0225C61.7726 31.7124 62.9131 30.2737 64.7398 30.2737C66.5766 30.2737 67.6767 31.682 67.6767 34.0123C67.6767 36.3528 66.5766 37.7611 64.7297 37.7611Z" stroke="#4A3AFF"/>
  <path d="M77.4999 28.3182C76.0062 28.3182 74.7144 29.068 74.0483 30.3243H73.8868V28.5006H71.7977V43.2019H73.9675V37.8624H74.1391C74.7144 39.0276 75.9557 39.7166 77.5201 39.7166C80.2955 39.7166 82.0617 37.5179 82.0617 34.0123C82.0617 30.5067 80.2955 28.3182 77.4999 28.3182ZM76.8842 37.7611C75.0676 37.7611 73.9272 36.3224 73.9272 34.0225C73.9272 31.7124 75.0676 30.2737 76.8943 30.2737C78.7312 30.2737 79.8312 31.682 79.8312 34.0123C79.8312 36.3528 78.7312 37.7611 76.8842 37.7611Z" stroke="#4A3AFF"/>
  <path d="M55.75 39.5342H58.2396L52.7897 24.3807H50.2687L44.8187 39.5342H47.2247L48.6159 35.5122H54.3692L55.75 39.5342ZM51.4089 27.1321H51.5867L53.7729 33.5379H49.2122L51.4089 27.1321Z" stroke="#4A3AFF"/>
  <path d="M44.7585 13.6922V19.6819H46.9128C48.6907 19.6819 49.7203 18.582 49.7203 16.6684C49.7203 14.7839 48.6824 13.6922 46.9128 13.6922H44.7585ZM45.6847 14.539H46.8094C48.0457 14.539 48.7775 15.3276 48.7775 16.6808C48.7775 18.0548 48.0581 18.8352 46.8094 18.8352H45.6847V14.539Z" fill="white"/>
  <path d="M52.8735 19.7691C54.1883 19.7691 54.9946 18.885 54.9946 17.4197C54.9946 15.9627 54.1842 15.0744 52.8735 15.0744C51.5586 15.0744 50.7482 15.9627 50.7482 17.4197C50.7482 18.885 51.5545 19.7691 52.8735 19.7691ZM52.8735 18.9763C52.1003 18.9763 51.6661 18.4076 51.6661 17.4197C51.6661 16.4401 52.1003 15.8673 52.8735 15.8673C53.6425 15.8673 54.0808 16.4401 54.0808 17.4197C54.0808 18.4035 53.6425 18.9763 52.8735 18.9763Z" fill="white"/>
  <path d="M61.8608 15.1616H60.9718L60.1697 18.611H60.0994L59.1732 15.1616H58.3214L57.3952 18.611H57.3291L56.5228 15.1616H55.6214L56.8619 19.6819H57.7756L58.7018 16.3529H58.7721L59.7025 19.6819H60.6245L61.8608 15.1616Z" fill="white"/>
  <path d="M62.8846 19.6819H63.7736V17.0378C63.7736 16.3322 64.1912 15.8922 64.8486 15.8922C65.506 15.8922 65.8203 16.2533 65.8203 16.9797V19.6819H66.7092V16.7556C66.7092 15.6805 66.1552 15.0744 65.1504 15.0744C64.4723 15.0744 64.0258 15.3774 63.8066 15.8797H63.7405V15.1616H62.8846V19.6819Z" fill="white"/>
  <path d="M68.1093 19.6819H68.9983V13.3975H68.1093V19.6819Z" fill="white"/>
  <path d="M72.3416 19.7691C73.6565 19.7691 74.4628 18.885 74.4628 17.4197C74.4628 15.9627 73.6524 15.0744 72.3416 15.0744C71.0268 15.0744 70.2164 15.9627 70.2164 17.4197C70.2164 18.885 71.0226 19.7691 72.3416 19.7691ZM72.3416 18.9763C71.5684 18.9763 71.1343 18.4076 71.1343 17.4197C71.1343 16.4401 71.5684 15.8673 72.3416 15.8673C73.1107 15.8673 73.549 16.4401 73.549 17.4197C73.549 18.4035 73.1107 18.9763 72.3416 18.9763Z" fill="white"/>
  <path d="M77.1115 19.0053C76.6277 19.0053 76.2763 18.7687 76.2763 18.362C76.2763 17.9635 76.5575 17.7518 77.1777 17.7103L78.2775 17.6397V18.0174C78.2775 18.5778 77.7813 19.0053 77.1115 19.0053ZM76.8841 19.7567C77.4754 19.7567 77.9674 19.4993 78.2362 19.0469H78.3065V19.6819H79.1624V16.5937C79.1624 15.639 78.5256 15.0744 77.3968 15.0744C76.3755 15.0744 75.6478 15.5725 75.5568 16.3488H76.4169C76.5161 16.0291 76.8593 15.8465 77.3555 15.8465C77.9633 15.8465 78.2775 16.1163 78.2775 16.5937V16.9839L77.0578 17.0544C75.9869 17.1208 75.3832 17.5899 75.3832 18.4035C75.3832 19.2295 76.0158 19.7567 76.8841 19.7567Z" fill="white"/>
  <path d="M82.1791 19.7567C82.7993 19.7567 83.3244 19.4619 83.5932 18.968H83.6635V19.6819H84.5152V13.3975H83.6263V15.8797H83.5601C83.3162 15.3816 82.7952 15.0869 82.1791 15.0869C81.042 15.0869 80.3102 15.9918 80.3102 17.4197C80.3102 18.8518 81.0338 19.7567 82.1791 19.7567ZM82.4313 15.888C83.1756 15.888 83.6428 16.4816 83.6428 17.4238C83.6428 18.3703 83.1797 18.9555 82.4313 18.9555C81.6788 18.9555 81.2281 18.3786 81.2281 17.4197C81.2281 16.4691 81.6829 15.888 82.4313 15.888Z" fill="white"/>
  <path d="M90.2799 19.7691C91.5948 19.7691 92.4011 18.885 92.4011 17.4197C92.4011 15.9627 91.5907 15.0744 90.2799 15.0744C88.9651 15.0744 88.1547 15.9627 88.1547 17.4197C88.1547 18.885 88.961 19.7691 90.2799 19.7691ZM90.2799 18.9763C89.5067 18.9763 89.0726 18.4076 89.0726 17.4197C89.0726 16.4401 89.5067 15.8673 90.2799 15.8673C91.049 15.8673 91.4873 16.4401 91.4873 17.4197C91.4873 18.4035 91.049 18.9763 90.2799 18.9763Z" fill="white"/>
  <path d="M93.5779 19.6819H94.4668V17.0378C94.4668 16.3322 94.8844 15.8922 95.5419 15.8922C96.1993 15.8922 96.5135 16.2533 96.5135 16.9797V19.6819H97.4025V16.7556C97.4025 15.6805 96.8485 15.0744 95.8437 15.0744C95.1656 15.0744 94.719 15.3774 94.4999 15.8797H94.4337V15.1616H93.5779V19.6819Z" fill="white"/>
  <path d="M101.497 14.0367V15.1824H100.781V15.9337H101.497V18.4865C101.497 19.3582 101.89 19.7069 102.878 19.7069C103.051 19.7069 103.217 19.6861 103.362 19.6612V18.9182C103.238 18.9306 103.159 18.9389 103.023 18.9389C102.58 18.9389 102.386 18.7314 102.386 18.2582V15.9337H103.362V15.1824H102.386V14.0367H101.497Z" fill="white"/>
  <path d="M104.555 19.6819H105.444V17.042C105.444 16.3571 105.849 15.8963 106.577 15.8963C107.205 15.8963 107.54 16.2616 107.54 16.9839V19.6819H108.429V16.7639C108.429 15.6888 107.838 15.0786 106.879 15.0786C106.2 15.0786 105.725 15.3816 105.506 15.888H105.436V13.3975H104.555V19.6819Z" fill="white"/>
  <path d="M111.636 15.834C112.293 15.834 112.724 16.2948 112.744 17.0046H110.47C110.52 16.299 110.979 15.834 111.636 15.834ZM112.74 18.4616C112.575 18.8144 112.207 19.0095 111.669 19.0095C110.958 19.0095 110.499 18.5072 110.47 17.7144V17.6646H113.65V17.3533C113.65 15.9337 112.893 15.0744 111.64 15.0744C110.371 15.0744 109.565 15.9918 109.565 17.4363C109.565 18.8808 110.354 19.7691 111.644 19.7691C112.674 19.7691 113.393 19.271 113.596 18.4616H112.74Z" fill="white"/>
  <path d="M44.7585 13.6922V19.6819H46.9128C48.6907 19.6819 49.7203 18.582 49.7203 16.6684C49.7203 14.7839 48.6824 13.6922 46.9128 13.6922H44.7585ZM45.6847 14.539H46.8094C48.0457 14.539 48.7775 15.3276 48.7775 16.6808C48.7775 18.0548 48.0581 18.8352 46.8094 18.8352H45.6847V14.539Z" stroke="#4A3AFF"/>
  <path d="M52.8735 19.7691C54.1883 19.7691 54.9946 18.885 54.9946 17.4197C54.9946 15.9627 54.1842 15.0744 52.8735 15.0744C51.5586 15.0744 50.7482 15.9627 50.7482 17.4197C50.7482 18.885 51.5545 19.7691 52.8735 19.7691ZM52.8735 18.9763C52.1003 18.9763 51.6661 18.4076 51.6661 17.4197C51.6661 16.4401 52.1003 15.8673 52.8735 15.8673C53.6425 15.8673 54.0808 16.4401 54.0808 17.4197C54.0808 18.4035 53.6425 18.9763 52.8735 18.9763Z" stroke="#4A3AFF"/>
  <path d="M61.8608 15.1616H60.9718L60.1697 18.611H60.0994L59.1732 15.1616H58.3214L57.3952 18.611H57.3291L56.5228 15.1616H55.6214L56.8619 19.6819H57.7756L58.7018 16.3529H58.7721L59.7025 19.6819H60.6245L61.8608 15.1616Z" stroke="#4A3AFF"/>
  <path d="M62.8846 19.6819H63.7736V17.0378C63.7736 16.3322 64.1912 15.8922 64.8486 15.8922C65.506 15.8922 65.8203 16.2533 65.8203 16.9797V19.6819H66.7092V16.7556C66.7092 15.6805 66.1552 15.0744 65.1504 15.0744C64.4723 15.0744 64.0258 15.3774 63.8066 15.8797H63.7405V15.1616H62.8846V19.6819Z" stroke="#4A3AFF"/>
  <path d="M68.1093 19.6819H68.9983V13.3975H68.1093V19.6819Z" stroke="#4A3AFF"/>
  <path d="M72.3416 19.7691C73.6565 19.7691 74.4628 18.885 74.4628 17.4197C74.4628 15.9627 73.6524 15.0744 72.3416 15.0744C71.0268 15.0744 70.2164 15.9627 70.2164 17.4197C70.2164 18.885 71.0226 19.7691 72.3416 19.7691ZM72.3416 18.9763C71.5684 18.9763 71.1343 18.4076 71.1343 17.4197C71.1343 16.4401 71.5684 15.8673 72.3416 15.8673C73.1107 15.8673 73.549 16.4401 73.549 17.4197C73.549 18.4035 73.1107 18.9763 72.3416 18.9763Z" stroke="#4A3AFF"/>
  <path d="M77.1115 19.0053C76.6277 19.0053 76.2763 18.7687 76.2763 18.362C76.2763 17.9635 76.5575 17.7518 77.1777 17.7103L78.2775 17.6397V18.0174C78.2775 18.5778 77.7813 19.0053 77.1115 19.0053ZM76.8841 19.7567C77.4754 19.7567 77.9674 19.4993 78.2362 19.0469H78.3065V19.6819H79.1624V16.5937C79.1624 15.639 78.5256 15.0744 77.3968 15.0744C76.3755 15.0744 75.6478 15.5725 75.5568 16.3488H76.4169C76.5161 16.0291 76.8593 15.8465 77.3555 15.8465C77.9633 15.8465 78.2775 16.1163 78.2775 16.5937V16.9839L77.0578 17.0544C75.9869 17.1208 75.3832 17.5899 75.3832 18.4035C75.3832 19.2295 76.0158 19.7567 76.8841 19.7567Z" stroke="#4A3AFF"/>
  <path d="M82.1791 19.7567C82.7993 19.7567 83.3244 19.4619 83.5932 18.968H83.6635V19.6819H84.5152V13.3975H83.6263V15.8797H83.5601C83.3162 15.3816 82.7952 15.0869 82.1791 15.0869C81.042 15.0869 80.3102 15.9918 80.3102 17.4197C80.3102 18.8518 81.0338 19.7567 82.1791 19.7567ZM82.4313 15.888C83.1756 15.888 83.6428 16.4816 83.6428 17.4238C83.6428 18.3703 83.1797 18.9555 82.4313 18.9555C81.6788 18.9555 81.2281 18.3786 81.2281 17.4197C81.2281 16.4691 81.6829 15.888 82.4313 15.888Z" stroke="#4A3AFF"/>
  <path d="M90.2799 19.7691C91.5948 19.7691 92.4011 18.885 92.4011 17.4197C92.4011 15.9627 91.5907 15.0744 90.2799 15.0744C88.9651 15.0744 88.1547 15.9627 88.1547 17.4197C88.1547 18.885 88.961 19.7691 90.2799 19.7691ZM90.2799 18.9763C89.5067 18.9763 89.0726 18.4076 89.0726 17.4197C89.0726 16.4401 89.5067 15.8673 90.2799 15.8673C91.049 15.8673 91.4873 16.4401 91.4873 17.4197C91.4873 18.4035 91.049 18.9763 90.2799 18.9763Z" stroke="#4A3AFF"/>
  <path d="M93.5779 19.6819H94.4668V17.0378C94.4668 16.3322 94.8844 15.8922 95.5419 15.8922C96.1993 15.8922 96.5135 16.2533 96.5135 16.9797V19.6819H97.4025V16.7556C97.4025 15.6805 96.8485 15.0744 95.8437 15.0744C95.1656 15.0744 94.719 15.3774 94.4999 15.8797H94.4337V15.1616H93.5779V19.6819Z" stroke="#4A3AFF"/>
  <path d="M101.497 14.0367V15.1824H100.781V15.9337H101.497V18.4865C101.497 19.3582 101.89 19.7069 102.878 19.7069C103.051 19.7069 103.217 19.6861 103.362 19.6612V18.9182C103.238 18.9306 103.159 18.9389 103.023 18.9389C102.58 18.9389 102.386 18.7314 102.386 18.2582V15.9337H103.362V15.1824H102.386V14.0367H101.497Z" stroke="#4A3AFF"/>
  <path d="M104.555 19.6819H105.444V17.042C105.444 16.3571 105.849 15.8963 106.577 15.8963C107.205 15.8963 107.54 16.2616 107.54 16.9839V19.6819H108.429V16.7639C108.429 15.6888 107.838 15.0786 106.879 15.0786C106.2 15.0786 105.725 15.3816 105.506 15.888H105.436V13.3975H104.555V19.6819Z" stroke="#4A3AFF"/>
  <path d="M111.636 15.834C112.293 15.834 112.724 16.2948 112.744 17.0046H110.47C110.52 16.299 110.979 15.834 111.636 15.834ZM112.74 18.4616C112.575 18.8144 112.207 19.0095 111.669 19.0095C110.958 19.0095 110.499 18.5072 110.47 17.7144V17.6646H113.65V17.3533C113.65 15.9337 112.893 15.0744 111.64 15.0744C110.371 15.0744 109.565 15.9918 109.565 17.4363C109.565 18.8808 110.354 19.7691 111.644 19.7691C112.674 19.7691 113.393 19.271 113.596 18.4616H112.74Z" stroke="#4A3AFF"/>
</svg>