<svg xmlns="http://www.w3.org/2000/svg" width="151" height="56" viewBox="0 0 151 56" fill="none">
  <rect x="0.0820007" width="150" height="55.9072" rx="11.7053" fill="#F79F1A"/>
  <g filter="url(#filter0_ii_49_455)">
    <path d="M14.0484 16.3611C14.0484 15.7125 14.223 15.2272 14.5006 14.9163L28.0802 28.5499C28.1266 28.5965 28.1527 28.6597 28.1527 28.7255C28.1527 28.7914 28.1266 28.8545 28.0802 28.9012L14.5001 42.5342C14.2227 42.2233 14.0484 41.7392 14.0484 41.09V16.3611Z" fill="white" stroke="#F79F1A" stroke-width="0.292632"/>
    <path d="M32.9299 24.1307L32.9297 24.1306C32.926 24.1285 32.9212 24.1291 32.9182 24.1321L28.5177 28.5499L28.4143 28.4469L28.5177 28.5499C28.4712 28.5965 28.4451 28.6597 28.4451 28.7255C28.4451 28.7914 28.4712 28.8545 28.5177 28.9012L32.9168 33.3197C32.9206 33.3235 32.9263 33.3244 32.931 33.3219C32.9311 33.3219 32.9312 33.3218 32.9313 33.3218L33.0023 33.4497L32.9299 24.1307ZM32.9299 24.1307L38.3796 27.2391C38.3796 27.2391 38.3796 27.2391 38.3797 27.2391C39.1309 27.6678 39.4728 28.2122 39.4728 28.7262C39.4728 29.2403 39.1309 29.7849 38.3797 30.2141L32.9299 24.1307Z" fill="white" stroke="#F79F1A" stroke-width="0.292632"/>
    <g filter="url(#filter1_i_49_455)">
      <path d="M33.0026 33.4486L28.2979 28.7256L14.4178 42.661C14.9301 43.2067 15.7777 43.2738 16.7322 42.7303L33.0026 33.4486Z" fill="white"/>
    </g>
    <path d="M28.2979 28.9329L14.6268 42.6585C15.0852 43.0488 15.8061 43.0892 16.6597 42.6032L28.2979 28.9329ZM28.2979 28.9329L32.7639 33.4163L16.6598 42.6032L28.2979 28.9329Z" stroke="#F79F1A" stroke-width="0.292632"/>
    <path d="M16.6597 14.8491L16.6597 14.8491L32.7639 24.0349L28.299 28.5194L14.6268 14.7938C15.0853 14.4033 15.8062 14.3621 16.6597 14.8491Z" fill="white" stroke="#F79F1A" stroke-width="0.292632"/>
  </g>
  <path d="M74.5751 30.0787C72.1009 30.0787 70.0843 31.9596 70.0843 34.5503C70.0843 37.1252 72.1009 39.022 74.5751 39.022C77.0503 39.022 79.0669 37.1252 79.0669 34.5503C79.0658 31.9596 77.0492 30.0787 74.5751 30.0787ZM74.5751 37.2619C73.2191 37.2619 72.0504 36.1442 72.0504 34.5514C72.0504 32.9416 73.2202 31.8408 74.5751 31.8408C75.931 31.8408 77.0997 32.9416 77.0997 34.5514C77.0997 36.1432 75.931 37.2619 74.5751 37.2619ZM64.7773 30.0787C62.3031 30.0787 60.2865 31.9596 60.2865 34.5503C60.2865 37.1252 62.3031 39.022 64.7773 39.022C67.2525 39.022 69.2691 37.1252 69.2691 34.5503C69.2691 31.9596 67.2525 30.0787 64.7773 30.0787ZM64.7773 37.2619C63.4213 37.2619 62.2526 36.1442 62.2526 34.5514C62.2526 32.9416 63.4224 31.8408 64.7773 31.8408C66.1332 31.8408 67.3019 32.9416 67.3019 34.5514C67.303 36.1432 66.1332 37.2619 64.7773 37.2619ZM53.1238 31.4518V33.3485H57.6661C57.5304 34.4157 57.1749 35.1948 56.6321 35.7363C55.9714 36.3966 54.9374 37.1252 53.1238 37.1252C50.3278 37.1252 48.1418 34.872 48.1418 32.0774C48.1418 29.2827 50.3278 27.0296 53.1238 27.0296C54.6323 27.0296 55.7337 27.6226 56.5469 28.3848L57.886 27.0464C56.7499 25.9624 55.2424 25.1328 53.1238 25.1328C49.2937 25.1328 46.0737 28.2492 46.0737 32.0774C46.0737 35.9056 49.2937 39.022 53.1238 39.022C55.1909 39.022 56.7509 38.3438 57.9701 37.0737C59.2241 35.8204 59.6143 34.0582 59.6143 32.6357C59.6143 32.1962 59.5807 31.7893 59.5123 31.4507L53.1238 31.4518ZM100.785 32.9248C100.413 31.926 99.2768 30.0787 96.9552 30.0787C94.6504 30.0787 92.7348 31.8913 92.7348 34.5503C92.7348 37.0569 94.6335 39.022 97.175 39.022C99.2253 39.022 100.412 37.7687 100.904 37.04L99.3788 36.0233C98.8708 36.7688 98.1754 37.2598 97.175 37.2598C96.1757 37.2598 95.4635 36.8024 95.0059 35.9045L100.988 33.4316L100.785 32.9248ZM94.684 34.4157C94.6335 32.6872 96.0231 31.8072 97.0235 31.8072C97.803 31.8072 98.4637 32.1972 98.6846 32.7555L94.684 34.4157ZM89.8209 38.7517H91.7859V25.6081H89.8209V38.7517ZM86.5998 31.0785H86.5325C86.0917 30.5528 85.2439 30.0787 84.1772 30.0787C81.9397 30.0787 79.8895 32.0437 79.8895 34.5682C79.8895 37.0747 81.9397 39.023 84.1772 39.023C85.2449 39.023 86.0917 38.5488 86.5325 38.0073H86.5998V38.6508C86.5998 40.3615 85.6846 41.2762 84.2109 41.2762C83.0074 41.2762 82.2616 40.413 81.9566 39.6843L80.245 40.3962C80.7363 41.5811 82.0407 43.0383 84.2109 43.0383C86.5157 43.0383 88.4649 41.6831 88.4649 38.3795V30.351H86.6009L86.5998 31.0785ZM84.3466 37.2619C82.9906 37.2619 81.8556 36.1264 81.8556 34.5682C81.8556 32.9921 82.9906 31.8408 84.3466 31.8408C85.6846 31.8408 86.7355 32.9921 86.7355 34.5682C86.7355 36.1264 85.6846 37.2619 84.3466 37.2619ZM109.994 25.6081H105.291V38.7517H107.253V33.7723H109.993C112.168 33.7723 114.308 32.1983 114.308 29.6907C114.308 27.1831 112.169 25.6081 109.994 25.6081ZM110.045 31.9428H107.253V27.4375H110.045C111.512 27.4375 112.345 28.6519 112.345 29.6907C112.345 30.7084 111.512 31.9428 110.045 31.9428ZM122.176 30.0555C120.754 30.0555 119.283 30.6811 118.674 32.0679L120.416 32.7944C120.788 32.0679 121.482 31.8303 122.209 31.8303C123.224 31.8303 124.256 32.4391 124.273 33.521V33.6566C123.918 33.4537 123.156 33.1498 122.226 33.1498C120.348 33.1498 118.436 34.1813 118.436 36.1085C118.436 37.8675 119.976 38.9999 121.701 38.9999C123.02 38.9999 123.748 38.4079 124.205 37.714H124.272V38.7286H126.168V33.6892C126.169 31.3572 124.425 30.0555 122.176 30.0555ZM121.938 37.2587C121.296 37.2587 120.399 36.937 120.399 36.1421C120.399 35.1275 121.516 34.7385 122.481 34.7385C123.342 34.7385 123.749 34.9246 124.273 35.178C124.121 36.3966 123.072 37.2587 121.938 37.2587ZM133.07 30.3426L130.82 36.0412H130.753L128.418 30.3426H126.303L129.805 38.307L127.809 42.7376H129.856L135.253 30.3426H133.07ZM115.392 38.7517H117.353V25.6081H115.392V38.7517Z" fill="white"/>
  <path d="M52.8788 17.8335C52.8788 18.6986 52.6181 19.3872 52.0958 19.9013C51.503 20.5124 50.7295 20.818 49.7794 20.818C48.8692 20.818 48.0946 20.5083 47.4588 19.8889C46.8219 19.2684 46.5034 18.5004 46.5034 17.5836C46.5034 16.6659 46.8219 15.8978 47.4588 15.2784C48.0946 14.6579 48.8692 14.3482 49.7794 14.3482C50.2313 14.3482 50.6633 14.4349 51.0732 14.6073C51.4841 14.7808 51.8131 15.011 52.059 15.299L51.5051 15.8441C51.0879 15.3537 50.513 15.1091 49.7783 15.1091C49.1141 15.1091 48.5403 15.3382 48.0557 15.7966C47.5712 16.255 47.3295 16.8507 47.3295 17.5826C47.3295 18.3145 47.5712 18.9102 48.0557 19.3686C48.5403 19.827 49.1141 20.0561 49.7783 20.0561C50.4825 20.0561 51.07 19.8259 51.5398 19.3645C51.8446 19.064 52.0212 18.6459 52.0685 18.1101H49.7783V17.3658H52.8336C52.8651 17.5279 52.8788 17.6838 52.8788 17.8335Z" fill="white"/>
  <path d="M57.724 15.2464H54.8527V17.21H57.4423V17.9543H54.8527V19.9179H57.724V20.6797H54.0424V14.4856H57.724V15.2464Z" fill="white"/>
  <path d="M61.1407 20.6797H60.3304V15.2464H58.5689V14.4856H62.9022V15.2464H61.1407V20.6797Z" fill="white"/>
  <path d="M66.0373 20.6797V14.4856H66.8476V20.6797H66.0373Z" fill="white"/>
  <path d="M70.4411 20.6797H69.6308V15.2464H67.8693V14.4856H72.2026V15.2464H70.4411V20.6797Z" fill="white"/>
  <path d="M80.4055 19.8797C79.7854 20.5053 79.015 20.8181 78.0932 20.8181C77.1715 20.8181 76.4011 20.5053 75.7821 19.8797C75.162 19.254 74.853 18.488 74.853 17.5826C74.853 16.6773 75.162 15.9113 75.7821 15.2856C76.4011 14.66 77.1715 14.3462 78.0932 14.3462C79.0097 14.3462 79.7791 14.6611 80.4013 15.2898C81.0234 15.9185 81.3345 16.6824 81.3345 17.5826C81.3345 18.488 81.0245 19.254 80.4055 19.8797ZM76.3801 19.3604C76.8468 19.8249 77.4175 20.0562 78.0932 20.0562C78.769 20.0562 79.3408 19.8239 79.8064 19.3604C80.273 18.8958 80.5074 18.3032 80.5074 17.5826C80.5074 16.8621 80.273 16.2695 79.8064 15.8049C79.3408 15.3404 78.769 15.1091 78.0932 15.1091C77.4175 15.1091 76.8468 15.3414 76.3801 15.8049C75.9145 16.2695 75.6802 16.8621 75.6802 17.5826C75.6802 18.3032 75.9145 18.8958 76.3801 19.3604Z" fill="white"/>
  <path d="M82.4717 20.6797V14.4856H83.4576L86.5223 19.3036H86.557L86.5223 18.1102V14.4856H87.3326V20.6797H86.4866L83.28 15.6274H83.2453L83.28 16.8208V20.6797H82.4717Z" fill="white"/>
  <path d="M52.8788 17.8335C52.8788 18.6986 52.6181 19.3872 52.0958 19.9013C51.503 20.5124 50.7295 20.818 49.7794 20.818C48.8692 20.818 48.0946 20.5083 47.4588 19.8889C46.8219 19.2684 46.5034 18.5004 46.5034 17.5836C46.5034 16.6659 46.8219 15.8978 47.4588 15.2784C48.0946 14.6579 48.8692 14.3482 49.7794 14.3482C50.2313 14.3482 50.6633 14.4349 51.0732 14.6073C51.4841 14.7808 51.8131 15.011 52.059 15.299L51.5051 15.8441C51.0879 15.3537 50.513 15.1091 49.7783 15.1091C49.1141 15.1091 48.5403 15.3382 48.0557 15.7966C47.5712 16.255 47.3295 16.8507 47.3295 17.5826C47.3295 18.3145 47.5712 18.9102 48.0557 19.3686C48.5403 19.827 49.1141 20.0561 49.7783 20.0561C50.4825 20.0561 51.07 19.8259 51.5398 19.3645C51.8446 19.064 52.0212 18.6459 52.0685 18.1101H49.7783V17.3658H52.8336C52.8651 17.5279 52.8788 17.6838 52.8788 17.8335Z" stroke="white" stroke-width="0.0598465" stroke-miterlimit="10"/>
  <path d="M57.724 15.2464H54.8527V17.21H57.4423V17.9543H54.8527V19.9179H57.724V20.6797H54.0424V14.4856H57.724V15.2464Z" stroke="white" stroke-width="0.0598465" stroke-miterlimit="10"/>
  <path d="M61.1407 20.6797H60.3304V15.2464H58.5689V14.4856H62.9022V15.2464H61.1407V20.6797Z" stroke="white" stroke-width="0.0598465" stroke-miterlimit="10"/>
  <path d="M66.0373 20.6797V14.4856H66.8476V20.6797H66.0373Z" stroke="white" stroke-width="0.0598465" stroke-miterlimit="10"/>
  <path d="M70.4411 20.6797H69.6308V15.2464H67.8693V14.4856H72.2026V15.2464H70.4411V20.6797Z" stroke="white" stroke-width="0.0598465" stroke-miterlimit="10"/>
  <path d="M80.4055 19.8797C79.7854 20.5053 79.015 20.8181 78.0932 20.8181C77.1715 20.8181 76.4011 20.5053 75.7821 19.8797C75.162 19.254 74.853 18.488 74.853 17.5826C74.853 16.6773 75.162 15.9113 75.7821 15.2856C76.4011 14.66 77.1715 14.3462 78.0932 14.3462C79.0097 14.3462 79.7791 14.6611 80.4013 15.2898C81.0234 15.9185 81.3345 16.6824 81.3345 17.5826C81.3345 18.488 81.0245 19.254 80.4055 19.8797ZM76.3801 19.3604C76.8468 19.8249 77.4175 20.0562 78.0932 20.0562C78.769 20.0562 79.3408 19.8239 79.8064 19.3604C80.273 18.8958 80.5074 18.3032 80.5074 17.5826C80.5074 16.8621 80.273 16.2695 79.8064 15.8049C79.3408 15.3404 78.769 15.1091 78.0932 15.1091C77.4175 15.1091 76.8468 15.3414 76.3801 15.8049C75.9145 16.2695 75.6802 16.8621 75.6802 17.5826C75.6802 18.3032 75.9145 18.8958 76.3801 19.3604Z" stroke="white" stroke-width="0.0598465" stroke-miterlimit="10"/>
  <path d="M82.4717 20.6797V14.4856H83.4576L86.5223 19.3036H86.557L86.5223 18.1102V14.4856H87.3326V20.6797H86.4866L83.28 15.6274H83.2453L83.28 16.8208V20.6797H82.4717Z" stroke="white" stroke-width="0.0598465" stroke-miterlimit="10"/>
  <defs>
    <filter id="filter0_ii_49_455" x="13.9021" y="14.3462" width="25.717" height="28.7593" filterUnits="userSpaceOnUse" color-interpolation-filters="sRGB">
      <feFlood flood-opacity="0" result="BackgroundImageFix"/>
      <feBlend mode="normal" in="SourceGraphic" in2="BackgroundImageFix" result="shape"/>
      <feColorMatrix in="SourceAlpha" type="matrix" values="0 0 0 0 0 0 0 0 0 0 0 0 0 0 0 0 0 0 127 0" result="hardAlpha"/>
      <feOffset dy="-0.232642"/>
      <feComposite in2="hardAlpha" operator="arithmetic" k2="-1" k3="1"/>
      <feColorMatrix type="matrix" values="0 0 0 0 0 0 0 0 0 0 0 0 0 0 0 0 0 0 0.12 0"/>
      <feBlend mode="normal" in2="shape" result="effect1_innerShadow_49_455"/>
      <feColorMatrix in="SourceAlpha" type="matrix" values="0 0 0 0 0 0 0 0 0 0 0 0 0 0 0 0 0 0 127 0" result="hardAlpha"/>
      <feOffset dy="0.232642"/>
      <feComposite in2="hardAlpha" operator="arithmetic" k2="-1" k3="1"/>
      <feColorMatrix type="matrix" values="0 0 0 0 1 0 0 0 0 1 0 0 0 0 1 0 0 0 0.25 0"/>
      <feBlend mode="normal" in2="effect1_innerShadow_49_455" result="effect2_innerShadow_49_455"/>
    </filter>
    <filter id="filter1_i_49_455" x="14.4178" y="28.7256" width="18.5848" height="14.3799" filterUnits="userSpaceOnUse" color-interpolation-filters="sRGB">
      <feFlood flood-opacity="0" result="BackgroundImageFix"/>
      <feBlend mode="normal" in="SourceGraphic" in2="BackgroundImageFix" result="shape"/>
      <feColorMatrix in="SourceAlpha" type="matrix" values="0 0 0 0 0 0 0 0 0 0 0 0 0 0 0 0 0 0 127 0" result="hardAlpha"/>
      <feOffset dy="-0.232642"/>
      <feComposite in2="hardAlpha" operator="arithmetic" k2="-1" k3="1"/>
      <feColorMatrix type="matrix" values="0 0 0 0 0 0 0 0 0 0 0 0 0 0 0 0 0 0 0.08 0"/>
      <feBlend mode="normal" in2="shape" result="effect1_innerShadow_49_455"/>
    </filter>
  </defs>
</svg>